<?xml version="1.0" encoding="UTF-8"?>
<svg id="Layer_1" xmlns="http://www.w3.org/2000/svg" version="1.1" xmlns:xlink="http://www.w3.org/1999/xlink" viewBox="0 0 220 220">
  <!-- Generator: Adobe Illustrator 29.3.1, SVG Export Plug-In . SVG Version: 2.1.0 Build 151)  -->
  <defs>
    <style>
      .st0 {
        fill: url(#linear-gradient2);
      }

      .st1 {
        fill: url(#linear-gradient10);
      }

      .st2 {
        fill: url(#linear-gradient1);
      }

      .st3 {
        fill: url(#linear-gradient9);
      }

      .st4 {
        fill: url(#linear-gradient8);
      }

      .st5 {
        fill: url(#linear-gradient11);
      }

      .st6 {
        fill: url(#radial-gradient);
      }

      .st7 {
        fill: url(#linear-gradient16);
      }

      .st8 {
        fill: url(#radial-gradient1);
      }

      .st9 {
        fill: url(#linear-gradient12);
      }

      .st10 {
        fill: url(#linear-gradient7);
      }

      .st11 {
        fill: url(#linear-gradient4);
      }

      .st12 {
        fill: url(#linear-gradient14);
      }

      .st13 {
        fill: url(#linear-gradient5);
      }

      .st14 {
        fill: url(#linear-gradient3);
      }

      .st15 {
        fill: url(#linear-gradient15);
      }

      .st16 {
        fill: url(#linear-gradient17);
      }

      .st17 {
        fill: url(#radial-gradient2);
      }

      .st18 {
        fill: #fff;
        stroke: #000;
        stroke-miterlimit: 10;
        stroke-width: .2px;
      }

      .st19 {
        fill: url(#linear-gradient6);
      }

      .st20 {
        fill: url(#linear-gradient13);
      }

      .st21 {
        fill: url(#linear-gradient);
      }
    </style>
    <linearGradient id="linear-gradient" x1="222.8" y1="41.7" x2="222.8" y2="28.8" gradientTransform="translate(341.7 -92.8) scale(3)" gradientUnits="userSpaceOnUse">
      <stop offset="0" stop-color="#f05f26"/>
      <stop offset=".3" stop-color="#ed5e26"/>
      <stop offset=".5" stop-color="#e55924"/>
      <stop offset=".7" stop-color="#d75122"/>
      <stop offset=".8" stop-color="#c2461f"/>
      <stop offset=".9" stop-color="#a8381a"/>
      <stop offset="1" stop-color="#993018"/>
    </linearGradient>
    <radialGradient id="radial-gradient" cx="218.9" cy="34.1" fx="218.9" fy="34.1" r="30.6" gradientTransform="translate(341.7 -92.8) scale(3)" gradientUnits="userSpaceOnUse">
      <stop offset="0" stop-color="#b52710"/>
      <stop offset=".3" stop-color="#ce3711"/>
      <stop offset=".8" stop-color="#ef4c12"/>
      <stop offset="1" stop-color="#fc5412"/>
    </radialGradient>
    <linearGradient id="linear-gradient1" x1="236.9" y1="33.5" x2="215.5" y2="-18.9" gradientTransform="translate(341.7 -92.8) scale(3)" gradientUnits="userSpaceOnUse">
      <stop offset="0" stop-color="#b52710"/>
      <stop offset="1" stop-color="#fc5412"/>
    </linearGradient>
    <linearGradient id="linear-gradient2" x1="225.9" y1="27.8" x2="245.5" y2="5.9" gradientTransform="translate(341.7 -92.8) scale(3)" gradientUnits="userSpaceOnUse">
      <stop offset="0" stop-color="#b52710"/>
      <stop offset="1" stop-color="#fc5412"/>
    </linearGradient>
    <linearGradient id="linear-gradient3" x1="220.4" y1="30.3" x2="228.9" y2="-8.8" gradientTransform="translate(341.7 -92.8) scale(3)" gradientUnits="userSpaceOnUse">
      <stop offset="0" stop-color="#b52710"/>
      <stop offset="1" stop-color="#fc5412"/>
    </linearGradient>
    <linearGradient id="linear-gradient4" x1="217.6" y1="31.7" x2="196.7" y2="12.2" gradientTransform="translate(341.7 -92.8) scale(3)" gradientUnits="userSpaceOnUse">
      <stop offset="0" stop-color="#b52710"/>
      <stop offset="1" stop-color="#fc5412"/>
    </linearGradient>
    <linearGradient id="linear-gradient5" x1="211.5" y1="28.3" x2="219.1" y2="-1.4" gradientTransform="translate(341.7 -92.8) scale(3)" gradientUnits="userSpaceOnUse">
      <stop offset="0" stop-color="#b52710"/>
      <stop offset="1" stop-color="#fc5412"/>
    </linearGradient>
    <linearGradient id="linear-gradient6" x1="298.9" y1="48.7" x2="298.9" y2="30.3" gradientTransform="translate(341.7 -92.8) scale(3)" gradientUnits="userSpaceOnUse">
      <stop offset="0" stop-color="#f05f26"/>
      <stop offset=".3" stop-color="#ed5e26"/>
      <stop offset=".5" stop-color="#e55924"/>
      <stop offset=".7" stop-color="#d75122"/>
      <stop offset=".8" stop-color="#c2461f"/>
      <stop offset=".9" stop-color="#a8381a"/>
      <stop offset="1" stop-color="#993018"/>
    </linearGradient>
    <radialGradient id="radial-gradient1" cx="246.5" cy="-14.5" fx="246.5" fy="-14.5" r="30.6" gradientTransform="translate(146.2 58.1) scale(4.4 4.3)" gradientUnits="userSpaceOnUse">
      <stop offset="0" stop-color="#b52710"/>
      <stop offset=".3" stop-color="#ce3711"/>
      <stop offset=".8" stop-color="#ef4c12"/>
      <stop offset="1" stop-color="#fc5412"/>
    </radialGradient>
    <linearGradient id="linear-gradient7" x1="319.5" y1="37.1" x2="288.6" y2="-38.9" gradientTransform="translate(341.7 -92.8) scale(3)" gradientUnits="userSpaceOnUse">
      <stop offset="0" stop-color="#b52710"/>
      <stop offset="1" stop-color="#fc5412"/>
    </linearGradient>
    <linearGradient id="linear-gradient8" x1="303.6" y1="29" x2="331.7" y2="-2.4" gradientTransform="translate(341.7 -92.8) scale(3)" gradientUnits="userSpaceOnUse">
      <stop offset="0" stop-color="#b52710"/>
      <stop offset="1" stop-color="#fc5412"/>
    </linearGradient>
    <linearGradient id="linear-gradient9" x1="295.7" y1="32.5" x2="307.7" y2="-23.1" gradientTransform="translate(341.7 -92.8) scale(3)" gradientUnits="userSpaceOnUse">
      <stop offset="0" stop-color="#b52710"/>
      <stop offset="1" stop-color="#fc5412"/>
    </linearGradient>
    <linearGradient id="linear-gradient10" x1="291.4" y1="34.7" x2="261" y2="6.4" gradientTransform="translate(341.7 -92.8) scale(3)" gradientUnits="userSpaceOnUse">
      <stop offset="0" stop-color="#b52710"/>
      <stop offset="1" stop-color="#fc5412"/>
    </linearGradient>
    <linearGradient id="linear-gradient11" x1="282.6" y1="29.6" x2="293.5" y2="-12.6" gradientTransform="translate(341.7 -92.8) scale(3)" gradientUnits="userSpaceOnUse">
      <stop offset="0" stop-color="#b52710"/>
      <stop offset="1" stop-color="#fc5412"/>
    </linearGradient>
    <linearGradient id="linear-gradient12" x1="76.6" y1="90.4" x2="76.6" y2="41.4" gradientTransform="translate(341.7 -92.8) scale(3)" gradientUnits="userSpaceOnUse">
      <stop offset="0" stop-color="#f05f26"/>
      <stop offset=".3" stop-color="#ed5e26"/>
      <stop offset=".5" stop-color="#e55924"/>
      <stop offset=".7" stop-color="#d75122"/>
      <stop offset=".8" stop-color="#c2461f"/>
      <stop offset=".9" stop-color="#a8381a"/>
      <stop offset="1" stop-color="#993018"/>
    </linearGradient>
    <radialGradient id="radial-gradient2" cx="45.8" cy="-84" fx="45.8" fy="-84" r="30.6" gradientTransform="translate(-11 1032.7) scale(11.6 11.4)" gradientUnits="userSpaceOnUse">
      <stop offset="0" stop-color="#b52710"/>
      <stop offset=".3" stop-color="#ce3711"/>
      <stop offset=".8" stop-color="#ef4c12"/>
      <stop offset="1" stop-color="#fc5412"/>
    </radialGradient>
    <linearGradient id="linear-gradient13" x1="131.3" y1="59.5" x2="48.9" y2="-143.2" gradientTransform="translate(341.7 -92.8) scale(3)" gradientUnits="userSpaceOnUse">
      <stop offset="0" stop-color="#b52710"/>
      <stop offset="1" stop-color="#fc5412"/>
    </linearGradient>
    <linearGradient id="linear-gradient14" x1="89" y1="37.9" x2="164" y2="-46.1" gradientTransform="translate(341.7 -92.8) scale(3)" gradientUnits="userSpaceOnUse">
      <stop offset="0" stop-color="#b52710"/>
      <stop offset="1" stop-color="#fc5412"/>
    </linearGradient>
    <linearGradient id="linear-gradient15" x1="68" y1="47.2" x2="100" y2="-101.2" gradientTransform="translate(341.7 -92.8) scale(3)" gradientUnits="userSpaceOnUse">
      <stop offset="0" stop-color="#b52710"/>
      <stop offset="1" stop-color="#fc5412"/>
    </linearGradient>
    <linearGradient id="linear-gradient16" x1="56.6" y1="52.9" x2="-24.4" y2="-22.6" gradientTransform="translate(341.7 -92.8) scale(3)" gradientUnits="userSpaceOnUse">
      <stop offset="0" stop-color="#b52710"/>
      <stop offset="1" stop-color="#fc5412"/>
    </linearGradient>
    <linearGradient id="linear-gradient17" x1="33.1" y1="39.4" x2="62.2" y2="-73.1" gradientTransform="translate(341.7 -92.8) scale(3)" gradientUnits="userSpaceOnUse">
      <stop offset="0" stop-color="#b52710"/>
      <stop offset="1" stop-color="#fc5412"/>
    </linearGradient>
  </defs>
  <path class="st21" d="M1009.8-18.2c0-.4.4-.7.8-.7s1,.2,1,.6c2.8,33.7,4.2,50.5-1.5,50.5s-3.9-1.1-3.9-4.3,8.7,6.8,3.6-46.1h0Z"/>
  <path class="st6" d="M1059.6-10.2c1.1-4.1,14.2-3.5,17.5-6.8-3.6-3.6-14.2-3.5-15.1-6.4s1.5-4.1,1.9-6.7c-3.3.5-12.3,3.6-14-.4s12.2-15.8,14.3-19.8c-2.3-1.7-5,.1-7.1-3.3-2-3.5,7.2-13.3,7.6-18-4.9,0-13.2,7.6-16,5.9-2.9-1.7-2-4.3-2.7-5.8-5,1.8-14.4,13.4-17,11.2-2.6-2.2,2.7-23.6,1.7-27.7-3.3-.2-7.1,3.9-9.9,3.9s-6.8-18.5-9.8-18.5-6.2,18.5-9.8,18.5-6.6-4.1-9.9-3.9c-1,4.1,4.2,25.6,1.7,27.7-2.6,2.2-12-9.4-17-11.2-.7,1.5.2,4.1-2.7,5.8-2.9,1.7-11.1-5.9-16-5.9.5,4.7,9.7,14.6,7.7,18-2,3.5-4.7,1.7-7.1,3.3,2.1,4,16,15.8,14.3,19.8s-10.6.9-14,.4c.4,2.6,2.8,3.8,1.9,6.7s-11.5,2.8-15.1,6.4c3.3,3.3,16.4,2.7,17.5,6.8,1,3.5-2,3.9-2.1,6.4,3.7,1.2,14.3-2.2,17.8,2.4,3.2,4.2-1.6,8.5-1,12.6,28.4,0,31.5-19.5,33.8-19.5s4.2,19.5,33.8,19.5c.5-4.1-4.2-8.4-1-12.6,3.6-4.7,14.1-1.3,17.8-2.4,0-2.6-3-2.9-2.1-6.4h0Z"/>
  <path class="st2" d="M1059.6-10.2c1.1-4.1,14.2-3.5,17.5-6.8-10.1-1.3-22.2-.4-33.2,1.2-1.4.2,10.4,6.6,9,6.8-1.3.2-15.8-5.7-17.1-5.5-14.8,2.7-25.9,6.2-24.7,6.2,2.3,0,29-.2,32.7,6.9,3.6-4.7,14.1-1.3,17.8-2.4,0-2.6-3.1-2.9-2.1-6.4h0Z"/>
  <path class="st0" d="M1050-30.5c-1.7-4,12.2-15.8,14.3-19.8-2.3-1.7-5,.1-7.1-3.3-2-3.5,7.2-13.3,7.6-18-2,0-12.6,11.6-22.9,23.7-.9,1,14.2-.5,13.4.5-.7.8-17.3,4.2-18,5-3.1,3.7-4.9,5.6-7.7,9.1-.6.7,14.1-2.6,13.5-1.9-.6.8-17.6,7.2-18.2,8-8.6,10.8-14.7,19-13.8,19,2.3,0,23.1-19.2,38.8-22.2h.1Z"/>
  <path class="st14" d="M1029.2-60.4c-2.6-2.2,2.7-23.6,1.7-27.7-3.3-.2-7.1,3.9-9.9,3.9s-6.8-18.5-9.8-18.5c.8,14.3,1.3,26.7,1.4,39.5,0,.7,12.3-14.3,12.3-13.6s-12.3,18.6-12.3,19.3c0,5.9,0,9.6,0,14.9,0,.7,8.8-10.2,8.8-9.5s-8.9,15.9-8.9,16.5c-.2,10.8-.6,19.5-1.2,27.3,2.3,0,9.5-35.1,18.1-52.1h0Z"/>
  <path class="st11" d="M972.4-30.5c-1.7,4-10.6.9-14,.4.4,2.6,2.8,3.8,1.9,6.7s-11.5,2.8-15.1,6.4c9.2,0,17.6.5,25.2,1.3.6,0-6.6-9.7-6-9.6.6,0,11,10.3,11.6,10.3,4.4.5,8.4,1.1,12,1.7,1,.2-3.5-6.5-2.6-6.3.7.1,6.8,7.1,7.5,7.2,11.2,2.1,17.2,4.2,18.4,4.2,2.3,0-22.3-14.7-38.8-22.3h-.1Z"/>
  <path class="st13" d="M993.1-60.4c-2.6,2.2-12-9.4-17-11.2-.7,1.5.2,4.1-2.7,5.8-2.9,1.7-11.1-5.9-16-5.9,8.3,7.2,15.6,14.7,22,21.9.4.4-.7-15.2-.3-14.8.5.6,3.8,19.4,4.3,20,4,4.7,6.7,8.1,9.8,12.1.4.5-.9-20.1-.5-19.5.5.6,3.7,23.7,4.1,24.3,8.9,12,13.2,19.5,14.3,19.5,2.3,0-4.1-24.4-18-52.1h0Z"/>
  <g>
    <path class="st19" d="M1238.1-18.5c0-.6.6-1,1.2-1s1.5.3,1.5.9c4.1,47.9,6.2,71.8-2.2,71.8s-5.7-1.6-5.7-6.2,12.7,9.7,5.2-65.6h0Z"/>
    <path class="st8" d="M1310.7-7.2c1.6-5.9,20.6-5,25.5-9.7-5.2-5.1-20.7-5-22-9.1s2.2-5.9,2.8-9.6c-4.9.7-17.8,5.1-20.3-.6s17.8-22.5,20.8-28.2c-3.4-2.4-7.3.2-10.3-4.7-3-4.9,10.5-18.9,11.1-25.6-7.2,0-19.2,10.8-23.3,8.3-4.2-2.5-2.9-6.1-3.9-8.2-7.3,2.6-20.9,19.1-24.7,16s3.9-33.6,2.4-39.5c-4.8-.3-10.3,5.6-14.4,5.6s-9.9-26.3-14.3-26.3-9,26.3-14.3,26.3-9.6-5.9-14.4-5.6c-1.5,5.9,6.2,36.3,2.4,39.5-3.8,3.1-17.4-13.4-24.7-16-1,2.2.3,5.8-3.9,8.2-4.2,2.5-16.2-8.4-23.3-8.3.7,6.7,14.1,20.7,11.1,25.6s-6.9,2.4-10.3,4.7c3,5.7,23.3,22.5,20.8,28.2s-15.5,1.2-20.3.6c.6,3.7,4.1,5.5,2.8,9.6s-16.8,4-22,9.1c4.9,4.6,23.8,3.8,25.5,9.7,1.4,4.9-2.9,5.5-3,9.1,5.4,1.7,20.7-3.2,25.9,3.5,4.6,5.9-2.3,12.1-1.5,17.9,41.3,0,45.8-27.7,49.2-27.7s6.1,27.7,49.2,27.7c.7-5.8-6.2-11.9-1.5-17.9,5.2-6.7,20.5-1.8,25.9-3.5,0-3.6-4.4-4.2-3-9.1Z"/>
    <path class="st10" d="M1310.7-7.2c1.6-5.9,20.6-5,25.5-9.7-14.7-1.9-32.3-.6-48.3,1.7-2.1.3,15.1,9.3,13.1,9.7-1.9.3-23-8.1-24.8-7.8-21.5,3.9-37.7,8.9-35.9,8.9,3.3,0,42.1-.3,47.6,9.8,5.2-6.7,20.5-1.8,25.9-3.5,0-3.6-4.4-4.2-3.1-9.1Z"/>
    <path class="st4" d="M1296.7-36.1c-2.5-5.7,17.8-22.5,20.8-28.2-3.4-2.4-7.3.2-10.3-4.7-3-4.9,10.5-18.9,11.1-25.6-2.9,0-18.3,16.5-33.3,33.7-1.2,1.4,20.7-.7,19.4.7-1,1.2-25.2,5.9-26.2,7.1-4.4,5.2-7.2,8-11.3,13-.8,1,20.5-3.7,19.7-2.7-.9,1.1-25.6,10.3-26.5,11.3-12.5,15.3-21.3,27.1-20.1,27.1,3.3,0,33.6-27.3,56.5-31.6h.2Z"/>
    <path class="st3" d="M1266.4-78.5c-3.8-3.1,3.9-33.6,2.4-39.5-4.8-.3-10.3,5.6-14.4,5.6s-9.9-26.3-14.3-26.3c1.2,20.3,1.8,38,2,56.2,0,1,17.9-20.4,17.9-19.4s-17.9,26.4-17.8,27.5c0,8.4,0,13.6-.2,21.3,0,1,12.8-14.5,12.8-13.6s-12.9,22.6-13,23.5c-.3,15.4-.9,27.7-1.7,38.8,3.3,0,13.8-50,26.3-74.1h0Z"/>
    <path class="st1" d="M1183.7-36.1c-2.5,5.7-15.5,1.2-20.3.6.6,3.7,4.1,5.5,2.8,9.6s-16.8,4-22,9.1c13.4,0,25.7.7,36.6,1.8.9,0-9.7-13.8-8.8-13.7.8,0,16,14.6,16.8,14.7,6.4.7,12.2,1.5,17.4,2.4,1.4.2-5.1-9.2-3.8-9,1,.2,9.9,10.1,10.9,10.2,16.2,3,25.1,6,26.8,6,3.3,0-32.4-20.9-56.5-31.6h0Z"/>
    <path class="st5" d="M1213.9-78.5c-3.8,3.1-17.4-13.4-24.7-16-1,2.2.3,5.8-3.9,8.2-4.2,2.5-16.2-8.4-23.3-8.3,12.1,10.2,22.8,20.8,32,31.1.5.6-1-21.6-.4-21,.7.8,5.5,27.6,6.2,28.4,5.8,6.7,9.8,11.5,14.3,17.3.6.8-1.3-28.5-.8-27.8.7.9,5.3,33.7,6,34.5,12.9,17,19.1,27.7,20.8,27.7,3.3,0-5.9-34.8-26.3-74.1h.1Z"/>
  </g>
  <g>
    <path class="st9" d="M570.6-13.4c0-1.6,1.5-2.6,3.2-2.6s3.9.9,4.1,2.4c10.9,127.8,16.4,191.6-5.9,191.6s-15.2-4.2-15.2-16.5,33.8,25.9,13.9-174.9h0Z"/>
    <path class="st17" d="M764.1,16.6c4.4-15.6,54.9-13.4,67.9-25.7-13.9-13.6-55.1-13.3-58.6-24.2-3.6-10.9,5.9-15.6,7.5-25.5-12.9,1.7-47.6,13.7-54.2-1.5s47.5-60.1,55.5-75.2c-9-6.3-19.4.5-27.4-12.6s27.9-50.5,29.7-68.4c-19.1-.3-51.1,28.8-62.2,22.2-11.1-6.6-7.7-16.1-10.3-21.9-19.4,6.8-55.8,50.9-65.8,42.6s10.3-89.6,6.5-105.2c-12.9-.8-27.4,14.9-38.5,14.9s-26.3-70.1-38-70.1-24.1,70.1-38,70.1-25.6-15.7-38.5-14.9c-3.9,15.6,16.5,96.9,6.5,105.2s-46.5-35.8-65.8-42.6c-2.6,5.8.8,15.4-10.3,21.9-11.1,6.6-43.1-22.5-62.2-22.2,1.8,17.9,37.7,55.3,29.7,68.4s-18.3,6.3-27.4,12.6c8,15.1,62.2,60,55.5,75.2-6.6,15.2-41.3,3.3-54.2,1.5,1.6,9.9,11,14.6,7.5,25.5-3.9,10.9-45.1,10.6-59,24.2,13,12.3,63.5,10.1,67.9,25.7,3.7,13.2-7.8,14.6-8.1,24.3,14.5,4.5,55.3-8.4,69.2,9.3,12.4,15.8-6,32.2-4.1,47.6,110.1,0,122.2-73.8,131.1-73.8s16.4,73.8,131.1,73.8c2-15.5-16.4-31.8-4.1-47.6,13.8-17.7,54.7-4.8,69.2-9.3-.3-9.7-11.8-11.1-8.1-24.3Z"/>
    <path class="st20" d="M764.1,16.6c4.4-15.6,54.9-13.4,67.9-25.7-39.3-5-86.1-1.7-128.9,4.5-5.5.8,40.4,24.9,35,25.8-5,.8-61.4-21.6-66.3-20.7-57.4,10.3-100.6,23.6-95.8,23.6,8.9,0,112.4-.9,127.1,26.2,13.8-17.7,54.7-4.8,69.2-9.3-.4-9.7-11.9-11.1-8.2-24.3h0Z"/>
    <path class="st12" d="M726.6-60.3c-6.6-15.2,47.5-60.1,55.5-75.2-9-6.3-19.4.5-27.4-12.6s27.9-50.5,29.7-68.4c-7.6,0-48.7,43.9-88.8,89.8-3.3,3.8,55.2-1.9,51.9,2-2.7,3.1-67.3,15.9-70,19-11.8,13.8-19.1,21.4-30.1,34.6-2.2,2.7,54.8-9.9,52.6-7.3-2.4,2.9-68.3,27.4-70.6,30.2-33.3,40.8-56.9,72.2-53.5,72.2,8.9,0,89.6-72.8,150.6-84.4h0Z"/>
    <path class="st15" d="M646.1-173.6c-10-8.3,10.3-89.6,6.5-105.2-12.9-.8-27.4,14.9-38.5,14.9s-26.4-70.1-38.1-70.1c3.3,54.2,4.9,101.3,5.4,150,0,2.6,47.7-54.3,47.7-51.7s-47.6,70.4-47.6,73.2c0,22.3-.2,36.3-.5,56.7,0,2.6,34.2-38.8,34.1-36.2,0,2.5-34.5,60.2-34.6,62.6-.9,41.1-2.4,73.8-4.6,103.5,8.9,0,36.9-133.3,70.1-197.7h.1Z"/>
    <path class="st7" d="M425.4-60.3c-6.6,15.2-41.3,3.3-54.2,1.5,1.6,9.9,11,14.6,7.5,25.5-3.6,10.9-44.8,10.6-58.7,24.2,35.7,0,68.4,1.9,97.7,4.8,2.4.2-25.8-36.8-23.5-36.6,2.2.2,42.8,39,44.9,39.2,17.1,1.9,32.6,4.1,46.4,6.3,3.8.6-13.6-24.6-10-24,2.8.5,26.5,26.8,29.1,27.3,43.3,8.1,66.9,16.1,71.4,16.1,8.9,0-86.5-55.8-150.6-84.4h0Z"/>
    <path class="st16" d="M505.9-173.6c-10,8.3-46.5-35.8-65.8-42.6-2.6,5.8.8,15.4-10.3,21.9-11.1,6.6-43.1-22.5-62.2-22.2,32.2,27.2,60.7,55.6,85.4,82.9,1.4,1.6-2.6-57.6-1.2-56,1.9,2.2,14.7,73.5,16.6,75.7,15.6,17.8,26.1,30.8,38.1,46.1,1.6,2.1-3.6-76.1-2-74.1,1.8,2.3,14.3,89.8,16,92.1,34.4,45.4,51.1,73.9,55.6,73.9,8.9,0-15.7-92.7-70.1-197.7h-.1Z"/>
  </g>
  <circle class="st18" cx="108" cy="-170" r="109"/>
  <image width="220" height="220" transform="translate(-2 -280)" xlink:href="Product_of_canada.png"/>
  <circle class="st18" cx="110" cy="110" r="109"/>
  <image width="220" height="220" xlink:href="Made_in_canada.png"/>
</svg>